<?xml version="1.0" encoding="utf-8"?>
<!-- Generator: Adobe Illustrator 16.0.0, SVG Export Plug-In . SVG Version: 6.00 Build 0)  -->
<!DOCTYPE svg PUBLIC "-//W3C//DTD SVG 1.1//EN" "http://www.w3.org/Graphics/SVG/1.1/DTD/svg11.dtd">
<svg version="1.1" id="Layer_1" xmlns="http://www.w3.org/2000/svg" xmlns:xlink="http://www.w3.org/1999/xlink" x="0px" y="0px"
	 width="80px" height="80px" viewBox="0 0 80 80" enable-background="new 0 0 80 80" xml:space="preserve">
<g>
	<g>
		<path opacity="0.06" fill="#FFFFFF" d="M17.517,58.541l23.251-31.849c2.269-2.617,6.962-2.299,10.431,0.707l0.875,0.76
			c3.467,3.007,4.447,7.608,2.179,10.225l-17.401,17.82c-0.311,0.318-0.848,0.054-0.784-0.387l0.28-1.937L8.333,78.701
			c-0.398,0.354-0.977-0.138-0.695-0.588l12.507-19.954L18.1,59.22C17.669,59.443,17.23,58.933,17.517,58.541z"/>
		<path opacity="0.06" fill="#FFFFFF" d="M20.991,56.482l20.413-27.535c1.979-2.282,5.855-2.194,8.613,0.197l0.697,0.604
			c2.758,2.392,3.396,6.216,1.416,8.499L37.082,53.821c-0.267,0.276-0.73,0.038-0.66-0.341l0.289-1.547L12.687,73.715
			c-0.336,0.305-0.832-0.115-0.586-0.497l11.025-17.077l-1.633,0.912C21.127,57.256,20.742,56.818,20.991,56.482z"/>
		
			<linearGradient id="SVGID_1_" gradientUnits="userSpaceOnUse" x1="289.7979" y1="144.9072" x2="317.1164" y2="128.1459" gradientTransform="matrix(-0.9688 0.248 -0.248 -0.9688 362.1367 103.6689)">
			<stop  offset="0" style="stop-color:#F1C13B"/>
			<stop  offset="1" style="stop-color:#FF1200"/>
		</linearGradient>
		<path fill="url(#SVGID_1_)" d="M29.031,49.354l12.992-17.742c1.275-1.472,3.888-1.317,5.803,0.344l0.484,0.42
			c1.916,1.661,2.439,4.224,1.163,5.695L39.79,48.01c-0.201,0.205-0.548,0.033-0.504-0.252l0.146-0.95L23.935,60.6
			c-0.255,0.228-0.629-0.089-0.446-0.379l6.901-10.946l-0.982,0.517C29.13,49.938,28.846,49.607,29.031,49.354z"/>
		<g opacity="0.15">
			<g>
				<path fill="#230753" d="M42.58,32.541c1.275-1.471,3.887-1.316,5.803,0.345l0.484,0.419c0.334,0.29,0.609,0.613,0.856,0.947
					c-0.314-0.675-0.779-1.326-1.413-1.875l-0.484-0.42c-1.915-1.661-4.527-1.816-5.803-0.344L29.169,49.166
					c-0.219,0.299,0.117,0.689,0.445,0.517l0.673-0.354L42.58,32.541z"/>
				<path fill="#230753" d="M24.974,59.675l5.972-9.472l-1.708,0.898l-5.713,9.063c-0.188,0.299,0.197,0.625,0.461,0.391
					L24.974,59.675z"/>
			</g>
		</g>
	</g>
	<g>
		<path fill="#DDDDDD" d="M49.908,38.053c0.391,0.294,0.946,0.216,1.24-0.174l1.027-1.362c2.004-2.659,1.473-6.44-1.187-8.444l0,0
			c-2.659-2.004-6.44-1.473-8.444,1.186l-1.027,1.362c-0.294,0.391-0.216,0.946,0.175,1.241L49.908,38.053z"/>
		<path fill="#FF1200" d="M50.88,37.824l-9.219-6.948c-0.339-0.255-0.406-0.736-0.151-1.075l0,0
			c0.255-0.339,0.736-0.406,1.075-0.151l9.22,6.948c0.338,0.255,0.406,0.737,0.15,1.075v0C51.699,38.012,51.219,38.08,50.88,37.824z
			"/>
		
			<rect x="50.271" y="7.699" transform="matrix(0.7986 0.6019 -0.6019 0.7986 23.5247 -30.517)" fill="#F4F2ED" width="14.178" height="24.385"/>
		<path fill="#FF1200" d="M71.279,5.281c0,0,0.363-1.449-1.027-2.497c-1.389-1.047-2.682-0.299-2.682-0.299l-8.533,3.402l5.66,4.267
			l5.662,4.267L71.279,5.281z"/>
		<path fill="#FF1200" d="M56.995,34.851c-0.287,0.381-0.828,0.457-1.209,0.17l-12.518-9.434c-0.381-0.287-0.456-0.829-0.169-1.209
			l0,0c0.286-0.381,0.828-0.457,1.209-0.17l12.518,9.434C57.206,33.929,57.282,34.47,56.995,34.851L56.995,34.851z"/>
		<circle fill="#FF1200" cx="59.384" cy="17.205" r="4.99"/>
		
			<rect x="45.085" y="26.004" transform="matrix(0.7986 0.6019 -0.6019 0.7986 26.6229 -26.0106)" fill="#FF1200" width="14.178" height="1.535"/>
		<g>
			<path fill="#DDDDDD" d="M52.597,14.433l-8.773,0.958c0,0-1.759,0.102-3.036,1.797l-5.271,6.994l7.701-2.127
				c0,0,1.47-0.395,3.04,0.789L52.597,14.433z"/>
			<path fill="#FF1200" d="M35.961,26.168L35.961,26.168c-0.685-0.516-0.821-1.488-0.305-2.172l5.297-7.028
				c0,0,1.016-1.355,3.151-1.629L35.961,26.168z"/>
			<g>
				<path fill="#FF1200" d="M48.49,14.881l-5.441,7.22l0.169-0.046c0,0,0.271-0.065,0.69-0.058l5.434-7.208L48.49,14.881z"/>
			</g>
		</g>
		<g>
			<path fill="#DDDDDD" d="M63.919,22.966l1.497,8.698c0,0,0.387,1.719-0.891,3.415l-5.271,6.993l-0.077-7.989
				c0,0-0.025-1.521-1.597-2.705L63.919,22.966z"/>
			<path fill="#FF1200" d="M57.221,42.191L57.221,42.191c0.685,0.516,1.657,0.379,2.173-0.305l5.297-7.029
				c0,0,1.022-1.351,0.698-3.477L57.221,42.191z"/>
			<g>
				<path fill="#FF1200" d="M64.47,26.166l-5.436,7.212c0.13,0.414,0.143,0.704,0.143,0.704l0.001,0.141l5.438-7.213L64.47,26.166z"
					/>
			</g>
		</g>
		<path fill="#040028" d="M62.809,19.146c-1.318,2.296-4.449,2.691-6.297,0.751c-1.076-1.13-1.379-2.856-0.732-4.278
			c1.121-2.467,4.184-3.081,6.153-1.413C63.353,15.41,63.734,17.532,62.809,19.146z"/>
		
			<path fill="none" stroke="#F4F2ED" stroke-width="0.3" stroke-linecap="round" stroke-linejoin="round" stroke-miterlimit="10" d="
			M60.039,14.19c0.094,0.021,0.188,0.045,0.279,0.075"/>
		
			<path fill="none" stroke="#F4F2ED" stroke-width="0.3" stroke-linecap="round" stroke-linejoin="round" stroke-miterlimit="10" d="
			M57.536,14.735c0.603-0.451,1.344-0.66,2.077-0.606"/>
	</g>
</g>
</svg>
